<svg xmlns="http://www.w3.org/2000/svg" viewBox="0 0 232.84 127.27">
  <title>sombre</title>
  <g id="Calque_2" data-name="Calque 2">
    <g id="Calque_1-2" data-name="Calque 1">
      <g>
        <path d="M40.53,90q-4.83-1.6-11.76-6.81T11.07,69.45c-1.65-1.48-3-2.7-4-3.65s-1.9-1.71-2.6-2.29a17.31,17.31,0,0,0-1.85-1.36,10.74,10.74,0,0,0-1.8-.87,1.37,1.37,0,0,1-.68-.12C0,61.08,0,60.85.05,60.48a13.4,13.4,0,0,1,.62-1.8c.33-.82.82-2,1.48-3.46a66.66,66.66,0,0,1,5.39-7.43q3.53-4.34,7.36-8.92c1.32-1.32,2.89-2.86,4.71-4.64s3.67-3.57,5.57-5.38,3.76-3.49,5.57-5a32.76,32.76,0,0,1,4.71-3.4l2.6-3.1,2.47,1a3.71,3.71,0,0,1,1.92.56,3.71,3.71,0,0,0,1.92.56,1.74,1.74,0,0,1-.12.74,13.71,13.71,0,0,1-1.12,2.23q-1,1.11-2.78,3.59c-1.2,1.65-2.52,3.45-4,5.38s-2.94,3.86-4.46,5.76a59.69,59.69,0,0,1-4.15,4.71q-2,2.22-4.27,4.82t-4.58,5q-2.3,2.41-4.33,4.45a34.26,34.26,0,0,1-3.53,3.16A16.81,16.81,0,0,0,9,60.17q-.12.12.87.12a67.59,67.59,0,0,0,7,4.64,121,121,0,0,1,11,7.62Q30.14,74,33.6,76.63t6.75,5.2c2.18,1.74,4,3.28,5.57,4.65s2.29,2.16,2.29,2.41L47,90a6,6,0,0,1-3.22,1.49A6,6,0,0,1,40.53,90Z" style="fill: #ab4f2d"/>
        <path d="M66.9,68.21q0-14.23.31-28.59A191.16,191.16,0,0,1,70,11q-5.2-.12-10.84-.56A73.29,73.29,0,0,1,48.58,8.91a9.62,9.62,0,0,1,.49-3A28.93,28.93,0,0,1,50.19,3.1a16,16,0,0,1,4.27-1.24q2.79-.5,6.25-.81C63,.85,65.48.68,68.08.56S73.17.35,75.57.31,80.15.25,82.13.25h10q3.21,0,6.68.12c2.31.08,4.5.23,6.56.43a21.47,21.47,0,0,1,4.83.93l.75.37q.24.13.12.75l-1.61,6.44A94.66,94.66,0,0,1,94.2,11.2q-7.49.32-15.41.31a197.1,197.1,0,0,1,3.53,20.43,175,175,0,0,1,1.3,20.8v43.7c0,2.06-.07,4.23-.19,6.5s-.35,4.56-.68,6.87A26.14,26.14,0,0,1,81.14,116a12.79,12.79,0,0,1-2.91,4.46,6.27,6.27,0,0,1-4.52,1.73,2.35,2.35,0,0,1-2.35-1.85,29.06,29.06,0,0,1-.87-3.1,154.84,154.84,0,0,1-3-24.33Q66.91,80.6,66.9,68.21Z" style="fill: #efc153"/>
        <path d="M99.83,121.08c-1.07,0-1.69-.42-1.85-1.24a14.32,14.32,0,0,1-.25-2.85,10.68,10.68,0,0,1,.06-1.24,6.13,6.13,0,0,1,.25-1.11,9,9,0,0,1,.62-1.48c.28-.58.68-1.37,1.17-2.36a31,31,0,0,0,2.85-1.48,13.64,13.64,0,0,1,2.23-1.12,4.54,4.54,0,0,1,1.86-.31,2.48,2.48,0,0,1,1.6.81,6.43,6.43,0,0,1,1.55,2.16,9.77,9.77,0,0,1,.87,3,6.81,6.81,0,0,1-.31,3,3.74,3.74,0,0,1-2.11,2.17,5.17,5.17,0,0,1-2.22,2.29,8.67,8.67,0,0,1-2.85,1,5.15,5.15,0,0,1-2.42-.19C100.18,122,99.83,121.57,99.83,121.08Z" style="fill: #efc153"/>
        <path d="M165,0a9.83,9.83,0,0,1,6.56,2.29A18.23,18.23,0,0,1,176,8.17a38.8,38.8,0,0,1,2.91,8.11,77.49,77.49,0,0,1,1.67,9q.55,4.51.68,8.6c.09,2.73.13,4.95.13,6.69a78.34,78.34,0,0,1-2.17,17.27,116.12,116.12,0,0,1-6.19,19.06,129.4,129.4,0,0,1-9.72,18.7,90.1,90.1,0,0,1-12.69,16.09A61.31,61.31,0,0,1,135.36,123,37.44,37.44,0,0,1,118,127.27a33.1,33.1,0,0,1-5.14-.43,16.35,16.35,0,0,1-4.89-1.61,10.53,10.53,0,0,1-3.65-3.16,8.72,8.72,0,0,1-1.42-5.2,23.62,23.62,0,0,1,1.36-7.43l.49-.37q2.61.38,5.08.93a19.75,19.75,0,0,1,4.83,1.79,8,8,0,0,1-1,2.48,3.19,3.19,0,0,0-.37,2.6,37.35,37.35,0,0,0,4.45-1.3,14.32,14.32,0,0,0,4.09-2.29Q122.11,87,121.25,61t-.87-52.43a24.06,24.06,0,0,1,4.52-.8c1.53-.13,3.08-.27,4.64-.44a54.46,54.46,0,0,1,2.23,7.43q.87,3.84,1.86,7.43,3.23-3.84,6.38-7.74a61.71,61.71,0,0,1,6.74-7.12,32.53,32.53,0,0,1,8-5.26A24,24,0,0,1,165,0Zm.5,9.29a25.57,25.57,0,0,1-4,3,25.2,25.2,0,0,0-4,3A83.65,83.65,0,0,0,146,27.73q-5.2,6.93-9.9,14-.13,8.55.06,17.09T136.11,76q-.26,6.69-1.12,13.62a95.47,95.47,0,0,0-.74,13.62,69.6,69.6,0,0,0,14.3-16.9,112.54,112.54,0,0,0,10-21,133.36,133.36,0,0,0,5.89-22.72,135.55,135.55,0,0,0,1.91-22A51.84,51.84,0,0,0,166,15C165.8,13.08,165.61,11.19,165.45,9.29Z" style="fill: #efc153"/>
        <path d="M192.31,90a4.22,4.22,0,0,1-6.44,0l-1.23-1.11c0-.25.76-1,2.29-2.41s3.38-2.91,5.57-4.65,4.43-3.46,6.74-5.2,4.25-3.09,5.82-4.08a123.91,123.91,0,0,1,11-7.62,67.59,67.59,0,0,0,7-4.64q1,0,.87-.12a16.22,16.22,0,0,0-2.1-.87,33.25,33.25,0,0,1-3.53-3.16q-2-2-4.34-4.45t-4.58-5c-1.52-1.73-3-3.34-4.27-4.82a57.81,57.81,0,0,1-4.14-4.71q-2.29-2.85-4.46-5.76c-1.45-1.93-2.77-3.73-4-5.38s-2.13-2.85-2.79-3.59a6.63,6.63,0,0,1-1.11-2.23,1.58,1.58,0,0,1-.13-.74,3.71,3.71,0,0,0,1.92-.56,3.71,3.71,0,0,1,1.92-.56l2.48-1,2.6,3.1a32.2,32.2,0,0,1,4.7,3.4c1.82,1.53,3.67,3.2,5.57,5s3.76,3.61,5.57,5.38,3.39,3.32,4.71,4.64q3.84,4.59,7.37,8.92a66.39,66.39,0,0,1,5.38,7.43c.66,1.48,1.16,2.64,1.49,3.46a14.51,14.51,0,0,1,.61,1.8c.09.37.07.6-.06.68a1.34,1.34,0,0,1-.68.12,10.27,10.27,0,0,0-1.79.87,20.69,20.69,0,0,0-1.92,1.36c-.74.58-1.63,1.34-2.66,2.29s-2.34,2.17-3.9,3.65Q211,78,204.07,83.19T192.31,90Z" style="fill: #ab4f2d"/>
      </g>
    </g>
  </g>
</svg>
